<svg width="16" height="16" viewBox="0 0 16 16" fill="none" xmlns="http://www.w3.org/2000/svg">
<g clip-path="url(#clip0_1_564)">
<path d="M7.99992 1.33333C11.6819 1.33333 14.6666 4.31799 14.6666 7.99999C14.6666 11.682 11.6819 14.6667 7.99992 14.6667C4.31792 14.6667 1.33325 11.682 1.33325 7.99999C1.33325 4.31799 4.31792 1.33333 7.99992 1.33333ZM7.99325 6.66666H7.33325C7.16333 6.66685 6.9999 6.73191 6.87634 6.84856C6.75278 6.96521 6.67843 7.12463 6.66847 7.29426C6.65851 7.46389 6.7137 7.63091 6.82276 7.76122C6.93182 7.89152 7.08652 7.97526 7.25525 7.99533L7.33325 7.99999V11.3267C7.33325 11.6733 7.59592 11.96 7.93325 11.996L8.00659 12H8.33325C8.47346 12 8.6101 11.9558 8.72374 11.8737C8.83738 11.7916 8.92224 11.6757 8.96625 11.5426C9.01025 11.4094 9.01116 11.2658 8.96886 11.1322C8.92655 10.9985 8.84317 10.8816 8.73058 10.798L8.66658 10.756V7.33999C8.66658 6.99333 8.40392 6.70666 8.06659 6.67066L7.99325 6.66666ZM7.99992 4.66666C7.82311 4.66666 7.65354 4.7369 7.52851 4.86192C7.40349 4.98695 7.33325 5.15652 7.33325 5.33333C7.33325 5.51014 7.40349 5.67971 7.52851 5.80473C7.65354 5.92976 7.82311 5.99999 7.99992 5.99999C8.17673 5.99999 8.3463 5.92976 8.47132 5.80473C8.59635 5.67971 8.66658 5.51014 8.66658 5.33333C8.66658 5.15652 8.59635 4.98695 8.47132 4.86192C8.3463 4.7369 8.17673 4.66666 7.99992 4.66666Z" fill="#00AE1C"/>
</g>
<defs>
<clipPath id="clip0_1_564">
<rect width="16" height="16" fill="white"/>
</clipPath>
</defs>
</svg>
