<svg width="16" height="16" viewBox="0 0 16 16" fill="none" xmlns="http://www.w3.org/2000/svg">
<path d="M14.5308 4.96447L14.5306 4.96433L14.4975 4.99748L6.49745 12.9975L6.49739 12.9975C6.43207 13.0631 6.35445 13.1151 6.26899 13.1506C6.18352 13.1861 6.09189 13.2043 5.99935 13.2043C5.90681 13.2043 5.81518 13.1861 5.72971 13.1506C5.64424 13.1151 5.56662 13.0631 5.5013 12.9975L5.50124 12.9975L2.00124 9.49748C1.93583 9.43207 1.88394 9.35442 1.84854 9.26895C1.81314 9.18349 1.79492 9.09189 1.79492 8.99938C1.79492 8.90687 1.81314 8.81527 1.84854 8.72981C1.88394 8.64434 1.93583 8.56669 2.00124 8.50128C2.06666 8.43586 2.14431 8.38398 2.22978 8.34858C2.31524 8.31317 2.40684 8.29495 2.49935 8.29495C2.59185 8.29495 2.68345 8.31317 2.76892 8.34858C2.85438 8.38398 2.93204 8.43586 2.99745 8.50128L5.96683 11.4707L5.99997 11.5038L6.03312 11.4707L13.5025 4.00253L13.4693 3.96938L13.5025 4.00253C13.6346 3.87042 13.8138 3.7962 14.0006 3.7962C14.1874 3.7962 14.3666 3.87042 14.4987 4.00253C14.6308 4.13463 14.705 4.3138 14.705 4.50063C14.705 4.67176 14.6428 4.83647 14.5308 4.96447Z" fill="white" stroke="white" stroke-width="0.09375"/>
</svg>
